<svg id="katman_1" data-name="katman 1" xmlns="http://www.w3.org/2000/svg" xmlns:xlink="http://www.w3.org/1999/xlink" viewBox="0 0 589.38 181.35"><defs><style>.cls-1{fill:none;}.cls-2{clip-path:url(#clip-path);}.cls-3{fill:#fadb46;}</style><clipPath id="clip-path" transform="translate(-5.44 -134.7)"><rect class="cls-1" x="5.44" y="134.7" width="589.37" height="181.35"/></clipPath></defs><g class="cls-2"><path class="cls-3" d="M5.44,227.91V223a23,23,0,0,0,16.14-6.64,22.65,22.65,0,0,0,6.69-16h4.56a22.54,22.54,0,0,0,6.68,16A22.85,22.85,0,0,0,55.66,223v4.9a22.93,22.93,0,0,0-16.13,6.64,22.62,22.62,0,0,0-6.7,16H28.27a22.54,22.54,0,0,0-6.68-16.05A22.94,22.94,0,0,0,5.44,227.91Zm22.83-36.09H67.53c19.18,0,32.88,13.6,32.88,33.55s-13.69,33.55-32.88,33.55H28.27V316H44.7V273.43H67.53c27.58,0,49.32-21.58,49.32-48.06s-21.74-48.06-49.32-48.06H28.27Zm147.57-14.69a43,43,0,0,1,35.25,18.68V180h16.44v90.68H211.09V254.93c-8.24,11.45-21,18.68-35.25,18.68-27,0-49.87-21.22-49.87-48.24S148.81,177.13,175.84,177.13Zm0,82c21.18,0,35.25-14.51,35.25-33.73,0-19.4-13.88-33.73-35.25-33.73-19,0-33.43,13.6-33.43,33.73S156.85,259.1,175.84,259.1Zm112.5-82a43,43,0,0,1,35.25,18.68V134.7H340v136H323.59V254.93a42.9,42.9,0,0,1-35.25,18.68c-27,0-49.86-21.22-49.86-48.24S261.31,177.13,288.34,177.13Zm0,82c21.37,0,35.25-14.32,35.25-33.73s-13.88-33.73-35.25-33.73c-19,0-33.42,13.6-33.42,33.73S269.35,259.1,288.34,259.1Zm114.34-82a43,43,0,0,1,35.26,18.68V134.7h16.44v136H437.94V254.93a42.94,42.94,0,0,1-35.26,18.68c-27,0-49.86-21.22-49.86-48.24S375.65,177.13,402.68,177.13Zm0,82c21.37,0,35.26-14.32,35.26-33.73s-13.89-33.73-35.26-33.73c-19,0-33.42,13.6-33.42,33.73S383.69,259.1,402.68,259.1Zm68.11,11.61v-136h16.45v136Zm77.27-93.4c31.6,0,46.75,24.49,46.75,54.41H515.92c2.55,17.59,15.71,29,32.14,29,11.33,0,20.09-5.08,26.67-15.05h17.71c-6.21,14-22.46,27.74-44.38,27.74-27.57,0-48.95-21.94-48.95-48.05s21.38-48.06,48.95-48.06ZM578.38,219c0-14.88-12.79-29-30.32-29-16.43,0-29.59,11.45-32.14,29Z" transform="translate(-5.44 -134.7)"/></g></svg>