<svg id="Layer_1" data-name="Layer 1" xmlns="http://www.w3.org/2000/svg" viewBox="0 0 502.3 209.01"><defs><style>.cls-1,.cls-2{fill:#5559a6;}.cls-1{fill-rule:evenodd;}</style></defs><path class="cls-1" d="M7450.65,7203c0-35.72-17.3-63.91-50.37-63.91s-53.3,28.19-53.3,63.63c0,42,23.72,63.21,57.76,63.21,16.61,0,29.17-3.77,38.65-9.07v-27.91c-9.48,4.74-20.37,7.67-34.18,7.67-13.53,0-25.53-4.74-27.07-21.2h68.23C7450.37,7213.59,7450.65,7206.34,7450.65,7203Zm-68.93-13.26c0-15.76,9.63-22.32,18.42-22.32,8.51,0,17.58,6.56,17.58,22.32Z" transform="translate(-6948.35 -7094.99)"/><path class="cls-1" d="M7293.12,7139.08a39.37,39.37,0,0,0-27.34,10.89l-1.82-8.65h-30.69V7304l34.88-7.4.14-39.49c5,3.63,12.41,8.8,24.69,8.8,25,0,47.72-20.1,47.72-64.33C7340.56,7161.13,7317.54,7139.08,7293.12,7139.08Zm-8.37,96.14c-8.23,0-13.11-2.93-16.46-6.56l-.14-51.76c3.63-4,8.65-6.84,16.6-6.84,12.7,0,21.49,14.23,21.49,32.51C7306.24,7221.27,7297.59,7235.22,7284.75,7235.22Z" transform="translate(-6948.35 -7094.99)"/><path class="cls-1" d="M7185.27,7130.85l35-7.53V7095l-35,7.4Z" transform="translate(-6948.35 -7094.99)"/><path class="cls-2" d="M7220.29,7141.46h-35v122.08h35Z" transform="translate(-6948.35 -7094.99)"/><path class="cls-1" d="M7147.74,7151.78l-2.24-10.32h-30.14v122.08h34.89V7180.8c8.23-10.74,22.18-8.79,26.51-7.25v-32.09C7172.29,7139.78,7156,7136.71,7147.74,7151.78Z" transform="translate(-6948.35 -7094.99)"/><path class="cls-1" d="M7078,7111.18l-34,7.25-.14,111.77c0,20.65,15.48,35.85,36.13,35.85,11.45,0,19.82-2.09,24.42-4.6v-28.32c-4.46,1.81-26.51,8.23-26.51-12.42v-49.53h26.51v-29.72h-26.51Z" transform="translate(-6948.35 -7094.99)"/><path class="cls-1" d="M6983.65,7176.9c0-5.44,4.47-7.54,11.86-7.54a77.82,77.82,0,0,1,34.6,8.93V7145.5a92.09,92.09,0,0,0-34.6-6.42c-28.32,0-47.16,14.79-47.16,39.49,0,38.51,53,32.37,53,49,0,6.41-5.58,8.51-13.39,8.51-11.58,0-26.37-4.75-38.09-11.17v33.21a96.71,96.71,0,0,0,38.09,7.95c29,0,49-14.37,49-39.34C7036.81,7185.13,6983.65,7192.52,6983.65,7176.9Z" transform="translate(-6948.35 -7094.99)"/></svg>